<?xml version="1.0" standalone="no"?>
<!DOCTYPE svg PUBLIC "-//W3C//DTD SVG 20010904//EN"
 "http://www.w3.org/TR/2001/REC-SVG-20010904/DTD/svg10.dtd">
<svg version="1.0" xmlns="http://www.w3.org/2000/svg"
 width="16.000000pt" height="16.000000pt" viewBox="0 0 16.000000 16.000000"
 preserveAspectRatio="xMidYMid meet">
<metadata>
Created by potrace 1.11, written by Peter Selinger 2001-2013
</metadata>
<g transform="translate(0.000000,16.000000) scale(0.002873,-0.002873)"
fill="#000000" stroke="none">
<path d="M2519 5546 c-2 -2 -47 -6 -100 -10 -174 -11 -328 -45 -555 -122 -55
-18 -127 -46 -160 -61 -32 -15 -61 -28 -64 -28 -11 -1 -237 -119 -262 -136
-14 -11 -29 -19 -32 -19 -6 0 -141 -87 -183 -119 -45 -33 -45 -34 -103 -81
-166 -135 -402 -379 -523 -538 -207 -274 -399 -700 -473 -1047 -34 -160 -39
-237 -39 -585 0 -389 9 -486 61 -680 14 -52 30 -112 35 -133 31 -124 154 -411
241 -561 164 -284 401 -565 649 -771 86 -71 292 -215 308 -215 5 0 11 -3 13
-7 6 -15 277 -157 378 -197 163 -67 290 -108 445 -145 224 -54 250 -56 580
-56 371 1 426 5 620 49 447 102 823 281 1163 554 102 82 290 264 362 351 25
30 52 62 60 70 30 32 200 276 200 287 0 3 13 24 28 47 81 121 203 402 265 607
44 145 84 337 96 460 10 94 7 637 -3 695 -3 17 -7 50 -10 75 -2 25 -18 101
-35 170 -72 298 -193 598 -339 845 -30 51 -147 220 -162 235 -3 3 -25 30 -50
60 -246 303 -581 569 -944 750 -89 44 -171 82 -183 84 -12 3 -30 9 -40 14 -48
26 -284 97 -403 122 -138 29 -266 37 -566 38 -150 1 -273 0 -275 -2z"/>
</g>
</svg>
